<svg width="54" height="54" viewBox="0 0 54 54" fill="none" xmlns="http://www.w3.org/2000/svg">
<rect width="54" height="54" rx="27" fill="white"/>
<path d="M35.65 19.5125C35.4 18.775 34.7 18.25 33.875 18.25H20.125C19.3 18.25 18.6125 18.775 18.35 19.5125L15.75 27V37C15.75 37.6875 16.3125 38.25 17 38.25H18.25C18.9375 38.25 19.5 37.6875 19.5 37V35.75H34.5V37C34.5 37.6875 35.0625 38.25 35.75 38.25H37C37.6875 38.25 38.25 37.6875 38.25 37V27L35.65 19.5125ZM20.5625 20.75H33.425L34.775 24.6375H19.2125L20.5625 20.75ZM35.75 33.25H18.25V27H35.75V33.25Z" fill="black" fill-opacity="0.56"/>
<path d="M21.375 32C22.4105 32 23.25 31.1605 23.25 30.125C23.25 29.0895 22.4105 28.25 21.375 28.25C20.3395 28.25 19.5 29.0895 19.5 30.125C19.5 31.1605 20.3395 32 21.375 32Z" fill="black" fill-opacity="0.56"/>
<path d="M32.625 32C33.6605 32 34.5 31.1605 34.5 30.125C34.5 29.0895 33.6605 28.25 32.625 28.25C31.5895 28.25 30.75 29.0895 30.75 30.125C30.75 31.1605 31.5895 32 32.625 32Z" fill="black" fill-opacity="0.56"/>
<rect x="2" y="2" width="50" height="50" rx="25" stroke="black" strokeOpacity="0.56" stroke-width="4"/>
</svg>
