<svg width="54" height="54" viewBox="0 0 54 54" fill="none" xmlns="http://www.w3.org/2000/svg">
<rect x="2" y="2" width="50" height="50" rx="25" fill="white"/>
<path d="M31.375 18.875C32.75 18.875 33.875 17.75 33.875 16.375C33.875 15 32.75 13.875 31.375 13.875C30 13.875 28.875 15 28.875 16.375C28.875 17.75 30 18.875 31.375 18.875ZM18.25 27C14.75 27 12 29.75 12 33.25C12 36.75 14.75 39.5 18.25 39.5C21.75 39.5 24.5 36.75 24.5 33.25C24.5 29.75 21.75 27 18.25 27ZM18.25 37.625C15.875 37.625 13.875 35.625 13.875 33.25C13.875 30.875 15.875 28.875 18.25 28.875C20.625 28.875 22.625 30.875 22.625 33.25C22.625 35.625 20.625 37.625 18.25 37.625ZM25.5 25.125L28.5 22.125L29.5 23.125C31.125 24.75 33.25 25.75 35.875 25.75V23.25C34 23.25 32.5 22.5 31.375 21.375L29 19C28.375 18.5 27.75 18.25 27 18.25C26.25 18.25 25.625 18.5 25.25 19L21.75 22.5C21.25 23 21 23.625 21 24.25C21 25 21.25 25.625 21.75 26L25.75 29.5V35.75H28.25V28L25.5 25.125ZM35.75 27C32.25 27 29.5 29.75 29.5 33.25C29.5 36.75 32.25 39.5 35.75 39.5C39.25 39.5 42 36.75 42 33.25C42 29.75 39.25 27 35.75 27ZM35.75 37.625C33.375 37.625 31.375 35.625 31.375 33.25C31.375 30.875 33.375 28.875 35.75 28.875C38.125 28.875 40.125 30.875 40.125 33.25C40.125 35.625 38.125 37.625 35.75 37.625Z" fill="#22C348"/>
<rect x="2" y="2" width="50" height="50" rx="25" stroke="#22C348" stroke-width="4"/>
</svg>
