<svg width="80" height="80" viewBox="0 0 80 80" fill="none" xmlns="http://www.w3.org/2000/svg">
<rect x="2" y="2" width="76" height="76" rx="38" fill="white"/>
<path d="M53.84 28.02C53.44 26.84 52.32 26 51 26H29C27.68 26 26.58 26.84 26.16 28.02L22 40V56C22 57.1 22.9 58 24 58H26C27.1 58 28 57.1 28 56V54H52V56C52 57.1 52.9 58 54 58H56C57.1 58 58 57.1 58 56V40L53.84 28.02ZM29.7 30H50.28L52.44 36.22H27.54L29.7 30ZM54 50H26V40H54V50Z" fill="#22C348"/>
<path d="M31 48C32.6569 48 34 46.6569 34 45C34 43.3431 32.6569 42 31 42C29.3431 42 28 43.3431 28 45C28 46.6569 29.3431 48 31 48Z" fill="#22C348"/>
<path d="M49 48C50.6569 48 52 46.6569 52 45C52 43.3431 50.6569 42 49 42C47.3431 42 46 43.3431 46 45C46 46.6569 47.3431 48 49 48Z" fill="#22C348"/>
<rect x="2" y="2" width="76" height="76" rx="38" stroke="#22C348" stroke-width="4"/>
</svg>
