<svg width="480" height="386" viewBox="0 0 480 386" fill="none" xmlns="http://www.w3.org/2000/svg">
<g clip-path="url(#clip0_7_48)">
<path d="M437.934 26.0406H68.068V281.106H437.934V26.0406Z" fill="#E6E6E6"/>
<path opacity="0.44" d="M437.934 79.1454H68.068V281.106H437.934V79.1454Z" fill="#CCCCCC"/>
<path opacity="0.08" d="M423.805 227.416L395.629 267.48H422.148V281.106H437.934L436.943 232.24L423.805 227.416Z" fill="black"/>
<path opacity="0.08" d="M72.6799 100.793C72.6799 100.793 80.3451 95.629 83.9342 114.597C87.5232 133.566 76.9997 149.676 102.204 153.573C127.409 157.471 143.908 146.818 149.722 177.089C155.536 207.36 188.276 221.051 177.087 248.415C165.897 275.779 156.559 281.106 156.559 281.106H68.0677C68.0677 281.106 67.4019 111.577 72.6799 100.793Z" fill="black"/>
<path opacity="0.45" d="M81.6283 386.082C147.838 386.082 201.512 382.606 201.512 378.319C201.512 374.032 147.838 370.556 81.6283 370.556C15.4183 370.556 -38.2554 374.032 -38.2554 378.319C-38.2554 382.606 15.4183 386.082 81.6283 386.082Z" fill="#E6E6E6"/>
<path opacity="0.45" d="M435.563 383.451C468.668 383.451 495.505 380.746 495.505 377.409C495.505 374.073 468.668 371.368 435.563 371.368C402.458 371.368 375.621 374.073 375.621 377.409C375.621 380.746 402.458 383.451 435.563 383.451Z" fill="#E6E6E6"/>
<path d="M97.9006 56.5553C101.829 56.5553 105.014 53.3706 105.014 49.4422C105.014 45.5137 101.829 42.329 97.9006 42.329C93.9722 42.329 90.7875 45.5137 90.7875 49.4422C90.7875 53.3706 93.9722 56.5553 97.9006 56.5553Z" fill="#24285B"/>
<path d="M119.062 56.5553C122.99 56.5553 126.175 53.3706 126.175 49.4422C126.175 45.5137 122.99 42.329 119.062 42.329C115.133 42.329 111.948 45.5137 111.948 49.4422C111.948 53.3706 115.133 56.5553 119.062 56.5553Z" fill="#4094F7"/>
<path d="M139.004 56.5553C142.933 56.5553 146.117 53.3706 146.117 49.4422C146.117 45.5137 142.933 42.329 139.004 42.329C135.076 42.329 131.891 45.5137 131.891 49.4422C131.891 53.3706 135.076 56.5553 139.004 56.5553Z" fill="#FFD200"/>
<path d="M476.537 0.799683H339V104.703H476.537V0.799683Z" fill="#24285B"/>
<path d="M387.894 37.0078V69H381.302L368.448 47.5547V69H361.856V37.0078H368.448L381.324 58.4751V37.0078H387.894ZM415.096 63.8584V69H398.067V63.8584H415.096ZM400.221 37.0078V69H393.629V37.0078H400.221ZM412.877 50.0376V55.0474H398.067V50.0376H412.877ZM415.074 37.0078V42.1714H398.067V37.0078H415.074ZM426.654 63.9243L433.026 37.0078H436.585L437.398 41.4902L430.609 69H426.786L426.654 63.9243ZM423.38 37.0078L428.653 63.9243L428.214 69H423.951L416.854 37.0078H423.38ZM443.001 63.8145L448.209 37.0078H454.735L447.66 69H443.397L443.001 63.8145ZM438.585 37.0078L445.001 64.0342L444.825 69H441.002L434.168 41.4683L435.047 37.0078H438.585Z" fill="white"/>
<path d="M27.3053 365.034C27.3053 365.034 25.3078 370.588 20.2896 371.011C15.2715 371.433 13.9723 376.337 18.4707 377.604C22.9692 378.871 34.6133 373.089 34.6133 373.089L34.2723 365.862L27.3053 365.034Z" fill="#4094F7"/>
<path d="M96.163 365.034C96.163 365.034 98.1443 370.588 103.162 371.011C108.181 371.433 109.48 376.337 104.981 377.604C100.483 378.871 88.855 373.089 88.855 373.089L89.1798 365.862L96.163 365.034Z" fill="#4094F7"/>
<path d="M102.578 143.131C102.578 143.131 138.306 150.358 135.366 183.731C132.427 217.105 164.907 235.342 144.997 254.603C125.087 273.863 98.5504 263.031 98.5504 263.031L102.578 143.131Z" fill="#4094F7"/>
<path opacity="0.39" d="M102.578 143.131C102.578 143.131 138.306 150.358 135.366 183.731C132.427 217.105 164.907 235.342 144.997 254.603C125.087 273.863 98.5504 263.031 98.5504 263.031L102.578 143.131Z" fill="white"/>
<path d="M73.0049 110.099C74.5151 113.989 75.4983 118.063 75.9281 122.214C75.9454 122.71 75.8645 123.205 75.69 123.67C75.5155 124.135 75.2509 124.56 74.9113 124.922C74.5718 125.285 74.164 125.576 73.7114 125.78C73.2588 125.984 72.7703 126.097 72.2741 126.112C70.6805 126.267 69.0761 125.956 67.6552 125.219C66.2342 124.481 65.0576 123.347 64.2677 121.954L60.2565 116.319C59.5734 115.102 59.2847 113.704 59.4301 112.316C59.5755 110.929 60.148 109.621 61.0685 108.572C64.284 104.496 71.5433 105.763 73.0049 110.099Z" fill="#F4A28C"/>
<path d="M62.1078 117.731L62.4164 142.302L75.9443 141.165L70.2765 123.74L62.1078 117.731Z" fill="#F4A28C"/>
<path d="M61.0196 122.165C61.0604 122.317 61.1521 122.449 61.2793 122.541C61.4065 122.633 61.5614 122.678 61.718 122.669C62.8059 122.653 63.859 122.283 64.7177 121.615C65.5764 120.947 66.1938 120.017 66.4763 118.966C66.8128 117.811 66.8079 116.582 66.4621 115.43C66.1163 114.277 65.4445 113.249 64.5275 112.47C66.8393 112.248 69.1174 111.757 71.3158 111.008C72.058 110.76 72.7547 110.393 73.3783 109.92L73.6219 103.976C73.6219 103.976 74.986 97.7077 71.462 97.4804C67.9379 97.253 67.4994 101.313 64.1702 99.4292C60.841 97.5453 59.9478 96.7496 57.6742 98.9582C55.4006 101.167 59.0546 102.385 54.686 103.635C50.3175 104.886 50.7235 106.705 51.2594 108.702C51.5392 109.369 52.0149 109.935 52.6236 110.326C56.6252 113.264 59.5702 117.417 61.0196 122.165V122.165Z" fill="#24285B"/>
<path d="M67.1907 118.527C67.1907 118.527 66.3138 115.767 64.3 116.595C62.2863 117.423 63.5205 121.467 66.4599 120.947L67.1907 118.527Z" fill="#F4A28C"/>
<path d="M74.5153 114.598L77.3248 116.774C77.4838 116.897 77.6092 117.058 77.6896 117.243C77.7701 117.427 77.8029 117.629 77.7851 117.829C77.7673 118.03 77.6995 118.223 77.5879 118.39C77.4762 118.557 77.3244 118.694 77.1462 118.788L74.5477 120.119L74.5153 114.598Z" fill="#F4A28C"/>
<path opacity="0.31" d="M71.0559 126.079C69.1184 125.963 67.2415 125.359 65.5992 124.325C65.5992 124.325 66.4437 129.197 72.7611 131.194L71.0559 126.079Z" fill="#CE8172"/>
<path d="M87.962 139.932C65.6491 140.328 43.6236 145.038 23.0995 153.801C19.9529 155.131 17.1125 157.093 14.7537 159.564C12.3949 162.035 10.5678 164.964 9.38526 168.169C8.20273 171.374 7.68986 174.788 7.87831 178.199C8.06677 181.61 8.95256 184.947 10.481 188.002L45.7705 258.402L111.185 254.521C111.185 254.521 123.105 214.96 120.718 170.219C120.237 161.914 116.555 154.119 110.447 148.471C104.339 142.823 96.2794 139.762 87.962 139.932V139.932Z" fill="#4094F7"/>
<path d="M45.7704 258.402L26.2824 366.041H36.0264L60.5325 307.577C69.211 286.879 84.5131 269.646 104.039 258.581L111.218 254.505L45.7704 258.402Z" fill="#24285B"/>
<path opacity="0.08" d="M40.3624 163.155C44.9975 166.933 48.5793 171.843 50.7613 177.411C52.9434 182.978 53.652 189.015 52.8185 194.936C49.8304 215.318 46.696 231.168 65.5344 226.409C84.3728 221.651 94.4904 177.966 94.4904 177.966L116.414 178.501L112.63 227.221L99.9145 228.098C96.906 228.304 94.0486 229.493 91.7829 231.483C89.5172 233.472 87.9691 236.152 87.3772 239.109L83.9506 256.112L45.7704 258.37L40.3624 250.25L16.5384 224.526L13.5664 183.373L40.3624 163.155Z" fill="black"/>
<path d="M66.3373 219.511L108.821 222.485L112.894 164.297L70.4105 161.323L66.3373 219.511Z" fill="#FFD200"/>
<path d="M111.185 254.521L101.1 366.041H88.1079C88.1079 366.041 91.1447 282.129 67.6942 264.265L111.185 254.521Z" fill="#24285B"/>
<path d="M41.824 169.456C41.7337 166.172 40.6307 162.997 38.6659 160.365C36.7011 157.732 33.9707 155.772 30.8485 154.751C27.7263 153.73 24.3649 153.7 21.2247 154.664C18.0844 155.627 15.3188 157.538 13.3066 160.134C5.80367 169.716 -1.11457 185.696 -0.546165 211.94C0.671835 267.968 33.5578 282.99 84.3078 221.684L74.304 213.97C74.304 213.97 54.3288 230.924 36.0263 231.168C22.336 231.363 42.7497 196.187 41.824 169.456Z" fill="#4094F7"/>
<path opacity="0.39" d="M41.824 169.456C41.7337 166.172 40.6307 162.997 38.6659 160.365C36.7011 157.732 33.9707 155.772 30.8485 154.751C27.7263 153.73 24.3649 153.7 21.2247 154.664C18.0844 155.627 15.3188 157.538 13.3066 160.134C5.80367 169.716 -1.11457 185.696 -0.546165 211.94C0.671835 267.968 33.5578 282.99 84.3078 221.684L74.304 213.97C74.304 213.97 54.3288 230.924 36.0263 231.168C22.336 231.363 42.7497 196.187 41.824 169.456Z" fill="white"/>
<path opacity="0.08" d="M110.811 191.786C110.811 191.786 96.1954 218.631 66.9634 211.047L66.3301 220.449L108.716 223.324L110.811 191.786Z" fill="black"/>
<path d="M76.1555 215.383C76.1555 215.383 82.1318 204.827 89.4398 207.62C96.7478 210.413 84.308 221.684 84.308 221.684L76.1555 215.383Z" fill="#F4A28C"/>
<path opacity="0.58" d="M141.992 360.292C141.992 360.292 128.156 356.508 125.152 343.646C125.152 343.646 146.572 339.31 147.189 361.429L141.992 360.292Z" fill="#4094F7"/>
<path opacity="0.73" d="M143.681 358.911C143.681 358.911 134.018 343.646 142.528 329.355C142.528 329.355 158.768 339.716 151.574 358.944L143.681 358.911Z" fill="#4094F7"/>
<path d="M146.166 358.928C146.166 358.928 151.282 342.802 166.71 339.749C166.71 339.749 169.6 350.223 156.722 358.977L146.166 358.928Z" fill="#4094F7"/>
<path d="M136.146 358.571L138.939 377.751L156.608 377.815L159.207 358.669L136.146 358.571Z" fill="#24285B"/>
<path opacity="0.08" d="M437.95 104.544H364.009V130.025H437.95V104.544Z" fill="black"/>
<path d="M442.189 246.612H431.681V352.367H442.189V246.612Z" fill="#E6E6E6"/>
<path d="M437.934 190.925L395.629 255.739H437.934H480.255L437.934 190.925Z" fill="#FFD200"/>
<path d="M452.826 343.306H422.148V377.832H452.826V343.306Z" fill="#24285B"/>
<path d="M440.597 215.026H434.588V234.514H440.597V215.026Z" fill="#24285B"/>
<path d="M440.597 238.313H434.588V244.322H440.597V238.313Z" fill="#24285B"/>
</g>
<defs>
<clipPath id="clip0_7_48">
<rect width="480" height="385.6" fill="white"/>
</clipPath>
</defs>
</svg>
