<svg width="80" height="80" viewBox="0 0 80 80" fill="none" xmlns="http://www.w3.org/2000/svg">
<rect x="2" y="2" width="76" height="76" rx="38" fill="white"/>
<path d="M47 27C49.2 27 51 25.2 51 23C51 20.8 49.2 19 47 19C44.8 19 43 20.8 43 23C43 25.2 44.8 27 47 27ZM26 40C20.4 40 16 44.4 16 50C16 55.6 20.4 60 26 60C31.6 60 36 55.6 36 50C36 44.4 31.6 40 26 40ZM26 57C22.2 57 19 53.8 19 50C19 46.2 22.2 43 26 43C29.8 43 33 46.2 33 50C33 53.8 29.8 57 26 57ZM37.6 37L42.4 32.2L44 33.8C46.6 36.4 50 38 54.2 38V34C51.2 34 48.8 32.8 47 31L43.2 27.2C42.2 26.4 41.2 26 40 26C38.8 26 37.8 26.4 37.2 27.2L31.6 32.8C30.8 33.6 30.4 34.6 30.4 35.6C30.4 36.8 30.8 37.8 31.6 38.4L38 44V54H42V41.6L37.6 37ZM54 40C48.4 40 44 44.4 44 50C44 55.6 48.4 60 54 60C59.6 60 64 55.6 64 50C64 44.4 59.6 40 54 40ZM54 57C50.2 57 47 53.8 47 50C47 46.2 50.2 43 54 43C57.8 43 61 46.2 61 50C61 53.8 57.8 57 54 57Z" fill="#F8C51B"/>
<rect x="2" y="2" width="76" height="76" rx="38" stroke="#F8C51B" stroke-width="4"/>
</svg>
