<svg width="54" height="54" viewBox="0 0 54 54" fill="none" xmlns="http://www.w3.org/2000/svg">
<rect x="2" y="2" width="50" height="50" rx="25" fill="white"/>
<path d="M28.875 18.875C30.25 18.875 31.375 17.75 31.375 16.375C31.375 15 30.25 13.875 28.875 13.875C27.5 13.875 26.375 15 26.375 16.375C26.375 17.75 27.5 18.875 28.875 18.875ZM24.25 23.125L20.75 40.75H23.375L25.625 30.75L28.25 33.25V40.75H30.75V31.375L28.125 28.875L28.875 25.125C30.5 27 33 28.25 35.75 28.25V25.75C33.375 25.75 31.375 24.5 30.375 22.75L29.125 20.75C28.425 19.6375 27.025 19.1875 25.8125 19.7L19.5 22.375V28.25H22V24L24.25 23.125Z" fill="#F8C51B"/>
<rect x="2" y="2" width="50" height="50" rx="25" stroke="#F8C51B" stroke-width="4"/>
</svg>
