<svg width="20" height="20" viewBox="0 0 20 20" fill="none" xmlns="http://www.w3.org/2000/svg">
<g clip-path="url(#clip0_6781_123751)">
<path d="M5.54154 12.0999C3.47487 9.49154 2.31654 6.1332 2.52487 2.49987L7.11654 2.49987L7.62487 6.89154L5.52487 8.99154C5.86654 9.66654 6.27487 10.3082 6.7332 10.9082L16.4832 1.1582L17.6582 2.34154L2.3332 17.6582L1.1582 16.4832L5.54154 12.0999ZM9.07487 13.2582C9.6832 13.7249 10.3332 14.1332 11.0165 14.4832L13.1249 12.3749L17.4999 12.8832V17.4749C13.8582 17.6832 10.4999 16.5165 7.8832 14.4499L9.07487 13.2582Z" fill="black" fill-opacity="0.56"/>
</g>
<defs>
<clipPath id="clip0_6781_123751">
<rect width="20" height="20" fill="white" transform="matrix(0 1 -1 0 20 0)"/>
</clipPath>
</defs>
</svg>
