<svg width="13" height="17" viewBox="0 0 13 17" fill="none" xmlns="http://www.w3.org/2000/svg">
<path d="M11.3454 2.16792H9.84848V1.49824C9.84848 1.28157 9.61214 1.18309 9.39547 1.18309H8.23337C7.95762 0.395215 7.26822 0.00127534 6.48034 0.00127534C5.70113 -0.0280185 4.99239 0.449768 4.72731 1.18309H3.58489C3.36822 1.18309 3.15155 1.28157 3.15155 1.49824V2.16792H1.65455C0.767445 2.17739 0.0416975 2.87719 0 3.76336V15.0497C0 15.9164 0.787879 16.5467 1.65455 16.5467H11.3454C12.2121 16.5467 13 15.9164 13 15.0497V3.7634C12.9583 2.87719 12.2326 2.17739 11.3454 2.16792ZM3.93939 1.97097H5.02274C5.21184 1.9479 5.36374 1.80403 5.397 1.61643C5.51364 1.10845 5.95931 0.7438 6.48034 0.730076C6.99654 0.745722 7.4355 1.1115 7.54396 1.61643C7.57929 1.81052 7.74122 1.95623 7.9379 1.97097H9.06064V3.54673H3.93939V1.97097ZM12.2121 15.0497C12.2121 15.4831 11.7788 15.7588 11.3454 15.7588H1.65455C1.22122 15.7588 0.787879 15.4831 0.787879 15.0497V3.7634C0.828068 3.31234 1.20176 2.9641 1.65455 2.95584H3.15151V3.96039C3.17233 4.18109 3.36347 4.34618 3.58485 4.33465H9.39543C9.62088 4.34697 9.81802 4.18414 9.84845 3.96039V2.9558H11.3454C11.7982 2.9641 12.1719 3.3123 12.2121 3.76336V15.0497H12.2121Z" fill="#6E8BB7"/>
<path d="M4.98355 8.80568C4.8358 8.64993 4.59052 8.64115 4.43202 8.786L3.17141 9.98749L2.6396 9.43596C2.49184 9.28022 2.24656 9.27147 2.08807 9.41628C1.93549 9.57614 1.93549 9.82764 2.08807 9.98749L2.89562 10.8148C2.96552 10.893 3.06649 10.9363 3.17137 10.933C3.27527 10.9315 3.37439 10.889 3.44712 10.8148L4.98348 9.35721C5.13579 9.21749 5.14597 8.98072 5.00621 8.82845C4.99905 8.82049 4.99147 8.81291 4.98355 8.80568Z" fill="#6E8BB7"/>
<path d="M10.6366 9.65283H6.10634C5.88877 9.65283 5.7124 9.8292 5.7124 10.0468C5.7124 10.2643 5.88877 10.4407 6.10634 10.4407H10.6366C10.8542 10.4407 11.0306 10.2643 11.0306 10.0468C11.0306 9.8292 10.8542 9.65283 10.6366 9.65283Z" fill="#6E8BB7"/>
<path d="M4.98355 5.65431C4.8358 5.49857 4.59052 5.48978 4.43202 5.63463L3.17141 6.83613L2.6396 6.2846C2.49184 6.12885 2.24656 6.12007 2.08807 6.26492C1.93549 6.42477 1.93549 6.67627 2.08807 6.83613L2.89562 7.6634C2.96552 7.74167 3.06649 7.78495 3.17137 7.7816C3.27527 7.78013 3.37439 7.73764 3.44712 7.6634L4.98348 6.20584C5.13579 6.06612 5.14597 5.82935 5.00621 5.67708C4.99905 5.66912 4.99147 5.66155 4.98355 5.65431Z" fill="#6E8BB7"/>
<path d="M10.6366 6.50122H6.10634C5.88877 6.50122 5.7124 6.67759 5.7124 6.89516C5.7124 7.11273 5.88877 7.2891 6.10634 7.2891H10.6366C10.8542 7.2891 11.0306 7.11273 11.0306 6.89516C11.0306 6.67759 10.8542 6.50122 10.6366 6.50122Z" fill="#6E8BB7"/>
<path d="M4.98355 11.9573C4.8358 11.8015 4.59052 11.7928 4.43202 11.9376L3.17141 13.1391L2.6396 12.5876C2.49184 12.4318 2.24656 12.4231 2.08807 12.5679C1.93549 12.7277 1.93549 12.9792 2.08807 13.1391L2.89562 13.9664C2.96552 14.0446 3.06649 14.0879 3.17137 14.0846C3.27527 14.0831 3.37439 14.0406 3.44712 13.9664L4.98348 12.5088C5.13579 12.3691 5.14597 12.1323 5.00621 11.98C4.99905 11.9721 4.99147 11.9645 4.98355 11.9573Z" fill="#6E8BB7"/>
<path d="M10.6366 12.8042H6.10634C5.88877 12.8042 5.7124 12.9806 5.7124 13.1981C5.7124 13.4157 5.88877 13.5921 6.10634 13.5921H10.6366C10.8542 13.5921 11.0306 13.4157 11.0306 13.1981C11.0306 12.9806 10.8542 12.8042 10.6366 12.8042Z" fill="#6E8BB7"/>
</svg>
