<svg width="17" height="16" viewBox="0 0 17 16" fill="none" xmlns="http://www.w3.org/2000/svg">
<g clip-path="url(#clip0_4343_99689)">
<path d="M9.38083 12.5487C9.38083 12.1634 9.12695 11.8362 8.7777 11.7257C8.6772 10.3025 7.48711 9.17524 6.03874 9.17524H4.65655L4.43946 6.03712H12.3532L11.8601 4.46806H11.3251L10.9799 3.40109H8.50217V1.75213L9.83939 1.4401C10.1607 1.36513 10.385 1.08238 10.385 0.752475V0.721443C10.385 0.503225 10.2866 0.300819 10.115 0.16607C9.94332 0.0313511 9.72329 -0.0162113 9.51136 0.0355698L7.09002 0.627444V3.40116H4.6123L4.26712 4.46812H3.73212L3.23899 6.03718H3.96762L4.18471 9.1753H3.84206C2.39365 9.1753 1.20362 10.3025 1.10309 11.7258C0.753874 11.8362 0.5 12.1634 0.5 12.5487C0.5 12.7957 0.604344 13.0189 0.771281 13.1763C0.604344 13.3338 0.5 13.5569 0.5 13.8039C0.5 14.1913 0.756562 14.5199 1.10869 14.6287C1.20584 15.3925 1.85984 15.9849 2.64959 15.9849H7.23124C8.02102 15.9849 8.67498 15.3925 8.77214 14.6287C9.12426 14.5199 9.38083 14.1913 9.38083 13.8039C9.38083 13.5569 9.27648 13.3338 9.10955 13.1763C9.27648 13.0189 9.38083 12.7957 9.38083 12.5487ZM7.56074 0.996974L9.62308 0.49285C9.69373 0.475569 9.76707 0.491444 9.82429 0.53635C9.88151 0.581256 9.91432 0.648756 9.91432 0.721475V0.752506C9.91432 0.862474 9.83951 0.956693 9.73245 0.981724L8.03148 1.3786V3.40116H7.56077V0.996974H7.56074ZM4.95474 3.87184H10.6375L10.8304 4.46809H4.76187L4.95474 3.87184ZM3.88034 5.56643L4.07759 4.93881H11.5146L11.7118 5.56643H3.88034ZM3.84209 9.64596H6.03877C7.2138 9.64596 8.18367 10.5414 8.30183 11.6857H1.57903C1.69719 10.5414 2.66706 9.64596 3.84209 9.64596ZM1.36297 14.1962C1.14665 14.1962 0.970718 14.0202 0.970718 13.8039C0.970718 13.5876 1.14669 13.4117 1.36297 13.4117H1.62394L2.73378 14.1962H1.36297V14.1962ZM4.56405 14.0636L3.9629 14.4886L2.43943 13.4117H3.64177L4.56405 14.0636ZM4.45724 13.4117H7.50417L5.98068 14.4886L4.45724 13.4117ZM7.23124 15.5142H2.64959C2.13343 15.5142 1.70047 15.1511 1.59272 14.6669H3.39974L3.9629 15.065L4.9718 14.3519L5.98074 15.065L6.54389 14.6669H8.28814C8.18036 15.1511 7.74739 15.5142 7.23124 15.5142ZM8.51786 14.1962H7.2098L8.31967 13.4117H8.51783C8.73414 13.4117 8.91008 13.5876 8.91008 13.8039C8.91011 14.0203 8.73417 14.1962 8.51786 14.1962ZM8.51786 12.941H1.36297C1.14665 12.941 0.970718 12.765 0.970718 12.5487C0.970718 12.3324 1.14669 12.1565 1.36297 12.1565H8.51786C8.73417 12.1565 8.91011 12.3324 8.91011 12.5487C8.91011 12.765 8.73417 12.941 8.51786 12.941Z" fill="#84919A"/>
<path d="M16.1593 9.17523V6.16264H14.7471V7.1982H13.335V6.50783H11.9228V7.1982H11.4678V6.50783H10.0556V9.17523H9.49512L10.2368 15.9849H15.7584L16.5001 9.17523H16.1593ZM15.2179 6.63336H15.6886V9.17523H15.2179V6.63336ZM14.2764 7.66895H14.7471V10.0703L14.3932 11.0581H14.2764V7.66895ZM13.335 7.66895H13.8057V11.0581H13.335V7.66895ZM12.3935 6.97855H12.8643V11.0581H12.3935V6.97855ZM11.4678 7.66895H11.9228V11.0581H11.6021L11.4678 10.6834V7.66895ZM10.5264 6.97855H10.9971V9.3697L10.9274 9.17523H10.5264V6.97855ZM15.3362 15.5142H10.6591L10.02 9.64598H10.5961L11.2708 11.5289H14.7245L15.3992 9.64598H15.9754L15.3362 15.5142Z" fill="#84919A"/>
<path d="M10.7495 11.9995L11.081 15.0435H14.9138L15.2453 11.9995H10.7495ZM14.4915 14.5728H11.5033L11.2743 12.4703H14.7205L14.4915 14.5728Z" fill="#84919A"/>
<path d="M3.74806 10.148H3.27734V10.6187H3.74806V10.148Z" fill="#84919A"/>
<path d="M4.69972 10.4305H4.229V10.9012H4.69972V10.4305Z" fill="#84919A"/>
<path d="M5.65187 10.4305H5.18115V10.9012H5.65187V10.4305Z" fill="#84919A"/>
<path d="M6.60353 10.148H6.13281V10.6187H6.60353V10.148Z" fill="#84919A"/>
<path d="M7.67538 6.50783H5.19629V6.97855H7.67538V6.50783Z" fill="#84919A"/>
<path d="M8.76899 6.50783H8.146V6.97855H8.76899V6.50783Z" fill="#84919A"/>
<path d="M13.2486 13.2861H12.7778V13.7569H13.2486V13.2861Z" fill="#84919A"/>
<path d="M14.1586 13.2861H13.7192V13.7569H14.1586V13.2861Z" fill="#84919A"/>
<path d="M12.3071 13.2861H11.8364V13.7569H12.3071V13.2861Z" fill="#84919A"/>
</g>
<defs>
<clipPath id="clip0_4343_99689">
<rect width="16" height="16" fill="white" transform="translate(0.5)"/>
</clipPath>
</defs>
</svg>
