<svg width="12" height="14" viewBox="0 0 12 14" fill="none" xmlns="http://www.w3.org/2000/svg">
<g clip-path="url(#clip0_6781_123395)">
<path d="M7.28906 13.0029H2.8125C1.77859 13.0029 0.9375 12.1614 0.9375 11.127V4.77235C0.9375 3.73794 1.77859 2.89643 2.8125 2.89643H7.28906C8.32297 2.89643 9.16406 3.73794 9.16406 4.77235V11.127C9.16406 12.1614 8.32297 13.0029 7.28906 13.0029ZM2.8125 3.83439C2.29559 3.83439 1.875 4.25519 1.875 4.77235V11.127C1.875 11.6442 2.29559 12.065 2.8125 12.065H7.28906C7.80597 12.065 8.22656 11.6442 8.22656 11.127V4.77235C8.22656 4.25519 7.80597 3.83439 7.28906 3.83439H2.8125ZM11.0391 9.95457V2.87299C11.0391 1.83858 10.198 0.99707 9.16406 0.99707H3.96094C3.70203 0.99707 3.49219 1.20701 3.49219 1.46605C3.49219 1.72509 3.70203 1.93503 3.96094 1.93503H9.16406C9.68097 1.93503 10.1016 2.35583 10.1016 2.87299V9.95457C10.1016 10.2136 10.3114 10.4235 10.5703 10.4235C10.8292 10.4235 11.0391 10.2136 11.0391 9.95457Z" fill="#4A4B4B"/>
</g>
<defs>
<clipPath id="clip0_6781_123395">
<rect width="12" height="12.0059" fill="white" transform="translate(0 0.99707)"/>
</clipPath>
</defs>
</svg>
