<svg width="16" height="16" viewBox="0 0 16 16" fill="none" xmlns="http://www.w3.org/2000/svg">
<path d="M7.99997 12.2666C7.90591 12.2666 7.81397 12.2945 7.73577 12.3467C7.65756 12.399 7.59661 12.4733 7.56061 12.5602C7.52462 12.6471 7.5152 12.7427 7.53355 12.8349C7.5519 12.9272 7.59719 13.0119 7.6637 13.0784C7.73021 13.1449 7.81495 13.1902 7.90719 13.2086C7.99944 13.2269 8.09506 13.2175 8.18196 13.1815C8.26885 13.1455 8.34313 13.0846 8.39538 13.0064C8.44763 12.9282 8.47553 12.8362 8.47553 12.7422C8.47553 12.616 8.42542 12.4951 8.33624 12.4059C8.24705 12.3167 8.12609 12.2666 7.99997 12.2666Z" fill="#B3B3B3"/>
<path d="M4.68887 4.56427L4.81775 4.51094V5.29316C4.81775 6.13714 5.15302 6.94655 5.74981 7.54333C6.34659 8.14012 7.156 8.47539 7.99998 8.47539C8.84395 8.47539 9.65336 8.14012 10.2501 7.54333C10.8469 6.94655 11.1822 6.13714 11.1822 5.29316V4.51094C11.2222 4.51094 11.2666 4.54205 11.3066 4.56427C11.3624 4.59346 11.4233 4.61138 11.486 4.61701C11.5486 4.62264 11.6118 4.61587 11.6719 4.59709C11.7319 4.57831 11.7877 4.54789 11.836 4.50756C11.8843 4.46724 11.9241 4.41779 11.9533 4.36205C11.9825 4.30631 12.0004 4.24537 12.006 4.18271C12.0117 4.12004 12.0049 4.05689 11.9861 3.99684C11.9673 3.93679 11.9369 3.88103 11.8966 3.83274C11.8563 3.78444 11.8068 3.74457 11.7511 3.71539C11.5732 3.62763 11.389 3.55335 11.2 3.49316V2.7865C11.2 2.53615 11.1505 2.28828 11.0543 2.05716C10.958 1.82603 10.8171 1.61623 10.6394 1.43983C10.4618 1.26343 10.251 1.12392 10.0192 1.02933C9.78742 0.934749 9.5392 0.88696 9.28886 0.888719H6.71553C6.21221 0.888719 5.7295 1.08866 5.3736 1.44456C5.0177 1.80047 4.81775 2.28317 4.81775 2.7865V3.48872C4.62937 3.55234 4.44528 3.62805 4.26664 3.71539C4.15407 3.77432 4.06953 3.87556 4.0316 3.99684C3.99368 4.11811 4.00548 4.24948 4.06442 4.36205C4.12336 4.47462 4.2246 4.55917 4.34587 4.59709C4.46715 4.63502 4.59852 4.62321 4.71109 4.56427H4.68887ZM10.2222 5.29316C10.2189 5.88425 9.98441 6.45057 9.56887 6.87094C9.36213 7.08057 9.11579 7.24703 8.84417 7.36064C8.57255 7.47426 8.28107 7.53276 7.98664 7.53276C7.69222 7.53276 7.40073 7.47426 7.12911 7.36064C6.85749 7.24703 6.61116 7.08057 6.40442 6.87094C5.99863 6.44631 5.7739 5.8805 5.77775 5.29316V4.23983C5.92487 4.21796 6.07347 4.20756 6.2222 4.20872H9.8222C9.97093 4.20756 10.1195 4.21796 10.2666 4.23983L10.2222 5.29316ZM5.77775 2.7865C5.77689 2.66155 5.80124 2.53772 5.84935 2.4224C5.89746 2.30709 5.96835 2.20267 6.05775 2.11539C6.14564 2.02678 6.25018 1.95643 6.36535 1.90838C6.48053 1.86032 6.60407 1.83552 6.72887 1.83539H9.28886C9.53938 1.83683 9.77911 1.93752 9.95553 2.11539C10.0425 2.20378 10.111 2.3087 10.1568 2.42397C10.2026 2.53923 10.2248 2.6625 10.2222 2.7865V3.28427C10.0755 3.28427 9.93331 3.25761 9.77775 3.25761H6.2222C6.07553 3.25761 5.93331 3.25761 5.77775 3.28427V2.7865Z" fill="#B3B3B3"/>
<path d="M12.0399 9.41355L10.4265 9.05355C10.2257 9.00874 10.0175 9.00819 9.81642 9.05194C9.61533 9.09569 9.42618 9.18268 9.26211 9.30689L8.85322 9.61355C8.60618 9.79616 8.30708 9.89471 7.99988 9.89471C7.69268 9.89471 7.39358 9.79616 7.14655 9.61355L6.73766 9.30689C6.57316 9.18348 6.384 9.09697 6.18306 9.05325C5.98212 9.00954 5.77412 9.00964 5.57322 9.05355L3.95988 9.41355C3.22111 9.5737 2.55993 9.98312 2.08731 10.5731C1.61469 11.163 1.35941 11.8976 1.36433 12.6536V14.6358C1.36374 14.698 1.37549 14.7598 1.39891 14.8174C1.42232 14.8751 1.45693 14.9276 1.50073 14.9718C1.54454 15.016 1.59667 15.0511 1.65412 15.075C1.71157 15.099 1.7732 15.1113 1.83544 15.1113H14.1643C14.2266 15.1113 14.2882 15.099 14.3456 15.075C14.4031 15.0511 14.4552 15.016 14.499 14.9718C14.5428 14.9276 14.5774 14.8751 14.6009 14.8174C14.6243 14.7598 14.636 14.698 14.6354 14.6358V12.6536C14.6404 11.8976 14.3851 11.163 13.9125 10.5731C13.4398 9.98312 12.7787 9.5737 12.0399 9.41355ZM13.6888 14.1647H2.31099V12.6536C2.30879 12.1132 2.49207 11.5885 2.83019 11.1671C3.16832 10.7456 3.64083 10.453 4.16877 10.338L5.77766 9.978C5.84446 9.96489 5.91324 9.96561 5.97975 9.98014C6.04625 9.99466 6.10908 10.0227 6.16433 10.0624L6.57322 10.3691C6.98371 10.6764 7.48268 10.8424 7.99544 10.8424C8.5082 10.8424 9.00717 10.6764 9.41766 10.3691L9.82655 10.0624C9.8818 10.0227 9.94462 9.99466 10.0111 9.98014C10.0776 9.96561 10.1464 9.96489 10.2132 9.978L11.8266 10.338C12.3545 10.453 12.827 10.7456 13.1651 11.1671C13.5033 11.5885 13.6865 12.1132 13.6843 12.6536L13.6888 14.1647Z" fill="#B3B3B3"/>
<path d="M11.7913 12.2669H9.89794C9.83193 12.2605 9.7653 12.2679 9.70235 12.2888C9.6394 12.3097 9.58151 12.3435 9.5324 12.3881C9.48329 12.4326 9.44405 12.487 9.41719 12.5476C9.39034 12.6083 9.37646 12.6739 9.37646 12.7402C9.37646 12.8065 9.39034 12.8721 9.41719 12.9328C9.44405 12.9934 9.48329 13.0478 9.5324 13.0923C9.58151 13.1369 9.6394 13.1707 9.70235 13.1916C9.7653 13.2125 9.83193 13.2199 9.89794 13.2135H11.7913C11.8573 13.2199 11.9239 13.2125 11.9869 13.1916C12.0498 13.1707 12.1077 13.1369 12.1568 13.0923C12.2059 13.0478 12.2452 12.9934 12.272 12.9328C12.2989 12.8721 12.3127 12.8065 12.3127 12.7402C12.3127 12.6739 12.2989 12.6083 12.272 12.5476C12.2452 12.487 12.2059 12.4326 12.1568 12.3881C12.1077 12.3435 12.0498 12.3097 11.9869 12.2888C11.9239 12.2679 11.8573 12.2605 11.7913 12.2669Z" fill="#B3B3B3"/>
</svg>
