<svg width="17" height="16" viewBox="0 0 17 16" fill="none" xmlns="http://www.w3.org/2000/svg">
<path d="M13.1597 5.50917L13.3449 4.19594C13.3547 4.1302 13.3512 4.06317 13.3346 3.99881C13.3181 3.93444 13.2888 3.87405 13.2485 3.82119C13.2092 3.769 13.1599 3.72519 13.1035 3.69232C13.0471 3.65945 12.9846 3.63819 12.9199 3.62978L12.25 3.53516V3.2975C12.2498 3.16494 12.1971 3.03785 12.1033 2.94412C12.0096 2.85038 11.8825 2.79766 11.75 2.7975H11V1.5475C10.9998 1.41494 10.9471 1.28785 10.8533 1.19412C10.7596 1.10038 10.6325 1.04766 10.5 1.0475H9.49995C9.36739 1.04766 9.2403 1.10038 9.14657 1.19412C9.05283 1.28785 9.0001 1.41494 8.99995 1.5475H7.99995C7.86739 1.54766 7.7403 1.60038 7.64657 1.69412C7.55283 1.78785 7.5001 1.91494 7.49995 2.0475V2.3804L7.4191 2.39935L7.05147 0.840717C7.03705 0.776417 7.00998 0.715627 6.97184 0.661889C6.9337 0.608151 6.88525 0.562538 6.82931 0.527706C6.77337 0.492874 6.71106 0.46952 6.64601 0.459004C6.58095 0.448487 6.51446 0.451018 6.45039 0.46645L5.47652 0.694232C5.34802 0.726183 5.23712 0.80713 5.16753 0.91977C5.09793 1.03241 5.07516 1.16781 5.10408 1.29702L5.16301 1.5475H4.24995C4.11739 1.54766 3.9903 1.60038 3.89657 1.69412C3.80283 1.78785 3.75011 1.91494 3.74995 2.0475V5.55316C3.60562 5.62823 3.48982 5.74847 3.42023 5.89553C3.35065 6.04258 3.3311 6.20837 3.36458 6.36758L5.08821 14.5548C5.14829 14.835 5.30235 15.0861 5.52484 15.2667C5.74732 15.4472 6.02485 15.5462 6.31136 15.5473H10.6886C10.9751 15.5462 11.2526 15.4472 11.4751 15.2667C11.6976 15.0861 11.8516 14.835 11.9117 14.5548L13.6353 6.36758C13.6715 6.19128 13.6434 6.00786 13.5562 5.85044C13.469 5.69303 13.3283 5.57198 13.1597 5.50917ZM12.8499 4.1249L12.6674 5.41952C12.5907 5.40997 12.3231 5.36157 12.25 5.36559V4.04015L12.8499 4.1249ZM11.75 3.2975V5.55342C11.4627 5.86425 11.3607 6.29358 11 6.59185V3.2975H11.75ZM9.49995 1.5475H10.5V6.98525C10.1907 7.1797 9.85342 7.32562 9.49995 7.41795V1.5475ZM8.42702 7.54494L7.33772 2.93519C7.35833 2.92027 8.29303 2.71079 8.31404 2.70228L8.99995 5.61665V7.51559C8.81006 7.54059 8.61847 7.55041 8.42702 7.54494ZM7.99995 2.0475H8.99995V3.4339L8.80145 2.59071C8.78677 2.52661 8.75956 2.46605 8.72139 2.4125C8.68322 2.35895 8.63485 2.31347 8.57905 2.27867C8.52326 2.24387 8.46113 2.22043 8.39625 2.20972C8.33137 2.199 8.26501 2.20121 8.20099 2.21621L7.99995 2.26329V2.0475ZM6.56416 0.95229L6.95685 2.61719C6.90872 2.67667 6.87451 2.74616 6.85673 2.82058C6.83895 2.895 6.83804 2.97245 6.85408 3.04726L7.90301 7.5002C7.59968 7.45453 7.30301 7.37217 7.01953 7.25495L5.59199 1.1808L6.56416 0.95229ZM5.69237 3.7975L6.4323 6.9425C6.00633 6.66785 5.66577 6.27942 5.44917 5.8212C5.40249 5.71877 5.33458 5.62742 5.24995 5.5532V3.7975H5.69237ZM5.24995 2.0475V3.2975C5.11739 3.29766 4.9903 3.35038 4.89657 3.44412C4.80283 3.53785 4.75011 3.66494 4.74995 3.7975V5.3655C4.68002 5.36066 4.32537 5.42281 4.24995 5.43193V2.0475H5.24995ZM13.1461 6.26454L11.468 14.2354C11.4392 14.2095 11.4051 14.1903 11.368 14.1792C11.3309 14.1681 11.2918 14.1653 11.2535 14.1712C11.2152 14.177 11.1787 14.1913 11.1466 14.213C11.1145 14.2347 11.0877 14.2632 11.0679 14.2965C10.9566 14.5006 11.1405 14.6375 11.3043 14.7205C11.2357 14.8207 11.1438 14.9027 11.0366 14.9596C10.9293 15.0165 10.8099 15.0466 10.6886 15.0473H6.31136C6.18997 15.0466 6.07056 15.0165 5.96333 14.9596C5.85611 14.9027 5.76426 14.8207 5.69563 14.7205C5.85931 14.6375 6.04338 14.5005 5.93194 14.2965C5.91224 14.2632 5.88537 14.2347 5.85329 14.213C5.8212 14.1913 5.78469 14.177 5.74641 14.1712C5.70813 14.1653 5.66902 14.1681 5.63193 14.1792C5.59483 14.1903 5.56067 14.2095 5.53192 14.2355L3.85384 6.26454C3.84695 6.23123 3.84692 6.19687 3.85373 6.16355C3.86055 6.13022 3.87408 6.09863 3.89349 6.0707C3.9129 6.04277 3.9378 6.01908 3.96666 6.00107C3.99552 5.98307 4.02774 5.97112 4.06136 5.96596L4.72212 5.86684C4.77871 5.86003 4.83597 5.87205 4.88504 5.90104C4.93411 5.93004 4.97227 5.97439 4.99361 6.02724C5.57209 7.30734 7.07697 8.05595 8.49995 8.04726C9.96816 8.03951 11.3919 7.33078 12.0063 6.02726C12.0274 5.97424 12.0655 5.92973 12.1147 5.9007C12.1638 5.87167 12.2212 5.85976 12.2778 5.86684L12.9387 5.96596C12.9723 5.97115 13.0045 5.98311 13.0333 6.00112C13.0622 6.01913 13.087 6.04282 13.1064 6.07075C13.1258 6.09868 13.1394 6.13026 13.1462 6.16358C13.153 6.19689 13.1529 6.23124 13.1461 6.26454Z" fill="#84919A"/>
<path d="M8.5 9.29736C6.95789 9.29736 5.75 9.9563 5.75 10.7974C5.83202 12.7842 11.169 12.7831 11.25 10.7973C11.25 9.9563 10.0421 9.29736 8.5 9.29736ZM8.5 11.7974C7.17407 11.7974 6.25 11.2703 6.25 10.7974C6.25 10.3245 7.17407 9.79736 8.5 9.79736C9.82593 9.79736 10.75 10.3245 10.75 10.7974C10.75 11.2703 9.82593 11.7974 8.5 11.7974Z" fill="#84919A"/>
<path d="M7.14953 13.668C6.96716 13.702 6.78833 13.7432 6.61792 13.7904C6.56053 13.8074 6.51112 13.8443 6.47863 13.8946C6.44614 13.9449 6.4327 14.0051 6.44076 14.0644C6.44881 14.1237 6.47782 14.1782 6.52254 14.218C6.56726 14.2578 6.62474 14.2802 6.68458 14.2813C6.86882 14.2527 7.04774 14.1887 7.24108 14.1598C7.30629 14.1476 7.364 14.1101 7.40152 14.0554C7.43904 14.0007 7.4533 13.9333 7.44116 13.8681C7.42902 13.8029 7.39147 13.7452 7.33678 13.7077C7.28209 13.6702 7.21473 13.6559 7.14953 13.668H7.14953Z" fill="#84919A"/>
<path d="M10.3791 13.7896C10.1318 13.7534 9.65507 13.4902 9.55544 13.868C9.54947 13.9003 9.54991 13.9334 9.55676 13.9655C9.5636 13.9977 9.5767 14.0281 9.59532 14.0552C9.61393 14.0822 9.63769 14.1053 9.66524 14.1232C9.69279 14.141 9.72359 14.1533 9.75588 14.1593C9.95125 14.1883 10.1285 14.2522 10.3122 14.2806C10.372 14.2795 10.4294 14.257 10.4741 14.2173C10.5188 14.1775 10.5478 14.1231 10.5559 14.0638C10.564 14.0045 10.5506 13.9443 10.5182 13.894C10.4857 13.8437 10.4364 13.8067 10.3791 13.7896Z" fill="#84919A"/>
<path d="M8.76857 13.5519C8.51235 13.5744 8.00462 13.4231 7.98633 13.8102C8.02617 14.1857 8.49944 14.008 8.75147 14.0514C8.81717 14.0528 8.88079 14.0283 8.92853 13.9831C8.97627 13.938 9.0043 13.8758 9.00655 13.8101C9.0088 13.7444 8.98508 13.6805 8.94054 13.6322C8.896 13.5839 8.83422 13.555 8.76857 13.5519Z" fill="#84919A"/>
</svg>
