<svg width="240" height="290" viewBox="0 0 240 290" fill="none" xmlns="http://www.w3.org/2000/svg">
<path opacity="0.08" d="M110.935 3.79337C110.935 3.79337 118.601 -1.37095 122.19 17.5974C125.779 36.5657 115.255 52.6758 140.46 56.5734C165.664 60.471 182.164 49.8175 187.978 80.0889C193.792 110.36 226.532 124.051 215.342 151.415C204.153 178.779 194.815 184.106 194.815 184.106H106.323C106.323 184.106 105.657 14.5767 110.935 3.79337Z" fill="black"/>
<path opacity="0.45" d="M119.884 289.082C186.094 289.082 239.767 285.606 239.767 281.319C239.767 277.032 186.094 273.556 119.884 273.556C53.6737 273.556 0 277.032 0 281.319C0 285.606 53.6737 289.082 119.884 289.082Z" fill="#E6E6E6"/>
<path d="M65.5607 268.034C65.5607 268.034 63.5632 273.588 58.545 274.011C53.5269 274.433 52.2277 279.337 56.7261 280.604C61.2246 281.871 72.8687 276.089 72.8687 276.089L72.5276 268.862L65.5607 268.034Z" fill="#4094F7"/>
<path d="M134.418 268.034C134.418 268.034 136.4 273.588 141.418 274.011C146.436 274.433 147.735 279.337 143.237 280.604C138.738 281.871 127.11 276.089 127.11 276.089L127.435 268.862L134.418 268.034Z" fill="#4094F7"/>
<path d="M140.833 46.1313C140.833 46.1313 176.561 53.3581 173.622 86.7313C170.682 120.105 203.162 138.342 183.252 157.603C163.342 176.863 136.806 166.031 136.806 166.031L140.833 46.1313Z" fill="#4094F7"/>
<path opacity="0.39" d="M140.833 46.1313C140.833 46.1313 176.561 53.3581 173.622 86.7313C170.682 120.105 203.162 138.342 183.252 157.603C163.342 176.863 136.806 166.031 136.806 166.031L140.833 46.1313Z" fill="white"/>
<path d="M111.26 13.099C112.771 16.9889 113.754 21.0634 114.183 25.214C114.201 25.7102 114.12 26.2049 113.945 26.6697C113.771 27.1345 113.506 27.5603 113.167 27.9225C112.827 28.2847 112.419 28.5762 111.967 28.7803C111.514 28.9843 111.026 29.0969 110.529 29.1116C108.936 29.2667 107.332 28.9565 105.911 28.2186C104.49 27.4808 103.313 26.3469 102.523 24.9542L98.5119 19.3189C97.8288 18.1025 97.5401 16.704 97.6855 15.3165C97.831 13.929 98.4034 12.6208 99.3239 11.5724C102.539 7.4962 109.799 8.76291 111.26 13.099Z" fill="#F4A28C"/>
<path d="M100.363 20.7311L100.672 45.3023L114.2 44.1655L108.532 26.7399L100.363 20.7311Z" fill="#F4A28C"/>
<path d="M99.275 25.1652C99.3158 25.3166 99.4075 25.4493 99.5347 25.541C99.6619 25.6327 99.8168 25.6778 99.9733 25.6686C101.061 25.6529 102.114 25.283 102.973 24.6148C103.832 23.9466 104.449 23.0166 104.732 21.9659C105.068 20.8105 105.063 19.5825 104.718 18.4298C104.372 17.2772 103.7 16.2492 102.783 15.4699C105.095 15.2479 107.373 14.7574 109.571 14.0083C110.313 13.7604 111.01 13.3929 111.634 12.9202L111.877 6.97638C111.877 6.97638 113.241 0.707734 109.717 0.480374C106.193 0.253013 105.755 4.31301 102.426 2.42917C99.0964 0.545329 98.2032 -0.250433 95.9296 1.95821C93.656 4.16685 97.31 5.38486 92.9414 6.63534C88.5728 7.88582 88.9788 9.70469 89.5148 11.7022C89.7946 12.3691 90.2703 12.9354 90.8789 13.3262C94.8806 16.2643 97.8256 20.417 99.275 25.1652V25.1652Z" fill="#24285B"/>
<path d="M105.446 21.5274C105.446 21.5274 104.569 18.7666 102.555 19.5949C100.542 20.4231 101.776 24.4669 104.715 23.9472L105.446 21.5274Z" fill="#F4A28C"/>
<path d="M112.771 17.5977L115.58 19.7738C115.739 19.8972 115.865 20.0585 115.945 20.2429C116.025 20.4274 116.058 20.629 116.04 20.8295C116.023 21.0299 115.955 21.2227 115.843 21.3901C115.732 21.5575 115.58 21.6942 115.402 21.7876L112.803 23.1193L112.771 17.5977Z" fill="#F4A28C"/>
<path opacity="0.31" d="M109.311 29.0788C107.374 28.9628 105.497 28.3595 103.855 27.3249C103.855 27.3249 104.699 32.1969 111.016 34.1944L109.311 29.0788Z" fill="#CE8172"/>
<path d="M126.217 42.9317C103.904 43.3284 81.879 48.0379 61.3548 56.8006C58.2082 58.1312 55.3678 60.0927 53.0091 62.5641C50.6503 65.0355 48.8232 67.9642 47.6407 71.1693C46.4581 74.3745 45.9452 77.7881 46.1337 81.1992C46.3222 84.6104 47.208 87.9467 48.7364 91.0021L84.0259 161.402L149.441 157.521C149.441 157.521 161.361 117.96 158.973 73.2193C158.492 64.9141 154.81 57.1187 148.702 51.4709C142.594 45.823 134.535 42.7623 126.217 42.9317V42.9317Z" fill="#4094F7"/>
<path d="M84.0258 161.402L64.5378 269.041H74.2818L98.7879 210.577C107.466 189.879 122.768 172.646 142.295 161.581L149.473 157.505L84.0258 161.402Z" fill="#24285B"/>
<path opacity="0.08" d="M78.6178 66.1547C83.2529 69.9329 86.8347 74.8433 89.0167 80.4108C91.1988 85.9784 91.9074 92.0148 91.0739 97.9364C88.0858 118.318 84.9514 134.168 103.79 129.409C122.628 124.651 132.746 80.9656 132.746 80.9656L154.67 81.5015L150.886 130.221L138.17 131.098C135.161 131.304 132.304 132.493 130.038 134.483C127.773 136.472 126.224 139.152 125.633 142.109L122.206 159.112L84.0258 161.37L78.6178 153.25L54.7938 127.526L51.8218 86.3735L78.6178 66.1547Z" fill="black"/>
<path d="M104.593 122.511L147.077 125.485L151.15 67.2972L108.666 64.3233L104.593 122.511Z" fill="#FFD200"/>
<path d="M149.44 157.521L139.355 269.041H126.363C126.363 269.041 129.4 185.129 105.95 167.265L149.44 157.521Z" fill="#24285B"/>
<path d="M80.0794 72.456C79.9891 69.1725 78.8861 65.9971 76.9213 63.3647C74.9566 60.7323 72.2261 58.7716 69.1039 57.751C65.9817 56.7304 62.6204 56.6999 59.4801 57.6636C56.3399 58.6272 53.5743 60.538 51.562 63.1342C44.0591 72.7158 37.1409 88.696 37.7093 114.94C38.9273 170.968 71.8133 185.99 122.563 124.684L112.559 116.97C112.559 116.97 92.5842 133.924 74.2817 134.168C60.5914 134.363 81.0051 99.187 80.0794 72.456Z" fill="#4094F7"/>
<path opacity="0.39" d="M80.0794 72.456C79.9891 69.1725 78.8861 65.9971 76.9213 63.3647C74.9566 60.7323 72.2261 58.7716 69.1039 57.751C65.9817 56.7304 62.6204 56.6999 59.4801 57.6636C56.3399 58.6272 53.5743 60.538 51.562 63.1342C44.0591 72.7158 37.1409 88.696 37.7093 114.94C38.9273 170.968 71.8133 185.99 122.563 124.684L112.559 116.97C112.559 116.97 92.5842 133.924 74.2817 134.168C60.5914 134.363 81.0051 99.187 80.0794 72.456Z" fill="white"/>
<path opacity="0.08" d="M149.067 94.7859C149.067 94.7859 134.451 121.631 105.219 114.047L104.585 123.449L146.972 126.324L149.067 94.7859Z" fill="black"/>
<path d="M114.411 118.383C114.411 118.383 120.387 107.827 127.695 110.62C135.003 113.413 122.563 124.684 122.563 124.684L114.411 118.383Z" fill="#F4A28C"/>
<path opacity="0.58" d="M180.248 263.292C180.248 263.292 166.411 259.508 163.407 246.646C163.407 246.646 184.828 242.31 185.445 264.429L180.248 263.292Z" fill="#4094F7"/>
<path opacity="0.73" d="M181.937 261.911C181.937 261.911 172.274 246.646 180.784 232.355C180.784 232.355 197.024 242.716 189.829 261.944L181.937 261.911Z" fill="#4094F7"/>
<path d="M184.421 261.928C184.421 261.928 189.537 245.802 204.965 242.749C204.965 242.749 207.856 253.223 194.977 261.977L184.421 261.928Z" fill="#4094F7"/>
<path d="M174.401 261.571L177.195 280.751L194.864 280.815L197.462 261.669L174.401 261.571Z" fill="#24285B"/>
<path opacity="0.08" d="M110.935 3.79337C110.935 3.79337 118.601 -1.37095 122.19 17.5974C125.779 36.5657 115.255 52.6758 140.46 56.5734C165.664 60.471 182.164 49.8175 187.978 80.0889C193.792 110.36 226.532 124.051 215.342 151.415C204.153 178.779 194.815 184.106 194.815 184.106H106.323C106.323 184.106 105.657 14.5767 110.935 3.79337Z" fill="black"/>
<path d="M140.833 46.1313C140.833 46.1313 176.561 53.3581 173.622 86.7313C170.682 120.105 203.162 138.342 183.252 157.603C163.342 176.863 136.806 166.031 136.806 166.031L140.833 46.1313Z" fill="#4094F7"/>
<path opacity="0.39" d="M140.833 46.1313C140.833 46.1313 176.561 53.3581 173.622 86.7313C170.682 120.105 203.162 138.342 183.252 157.603C163.342 176.863 136.806 166.031 136.806 166.031L140.833 46.1313Z" fill="white"/>
<path d="M111.26 13.099C112.771 16.9889 113.754 21.0634 114.183 25.214C114.201 25.7102 114.12 26.2049 113.945 26.6697C113.771 27.1345 113.506 27.5603 113.167 27.9225C112.827 28.2847 112.419 28.5762 111.967 28.7803C111.514 28.9843 111.026 29.0969 110.529 29.1116C108.936 29.2667 107.332 28.9565 105.911 28.2186C104.49 27.4808 103.313 26.3469 102.523 24.9542L98.5119 19.3189C97.8288 18.1025 97.5401 16.704 97.6855 15.3165C97.831 13.929 98.4034 12.6208 99.3239 11.5724C102.539 7.4962 109.799 8.76291 111.26 13.099Z" fill="#F4A28C"/>
<path d="M100.363 20.7311L100.672 45.3023L114.2 44.1655L108.532 26.7399L100.363 20.7311Z" fill="#F4A28C"/>
<path d="M99.275 25.1652C99.3158 25.3166 99.4075 25.4493 99.5347 25.541C99.6619 25.6327 99.8168 25.6778 99.9733 25.6686C101.061 25.6529 102.114 25.283 102.973 24.6148C103.832 23.9466 104.449 23.0166 104.732 21.9659C105.068 20.8105 105.063 19.5825 104.718 18.4298C104.372 17.2772 103.7 16.2492 102.783 15.4699C105.095 15.2479 107.373 14.7574 109.571 14.0083C110.313 13.7604 111.01 13.3929 111.634 12.9202L111.877 6.97638C111.877 6.97638 113.241 0.707734 109.717 0.480374C106.193 0.253013 105.755 4.31301 102.426 2.42917C99.0964 0.545329 98.2032 -0.250433 95.9296 1.95821C93.656 4.16685 97.31 5.38486 92.9414 6.63534C88.5728 7.88582 88.9788 9.70469 89.5148 11.7022C89.7946 12.3691 90.2703 12.9354 90.8789 13.3262C94.8806 16.2643 97.8256 20.417 99.275 25.1652V25.1652Z" fill="#24285B"/>
<path d="M105.446 21.5274C105.446 21.5274 104.569 18.7666 102.555 19.5949C100.542 20.4231 101.776 24.4669 104.715 23.9472L105.446 21.5274Z" fill="#F4A28C"/>
<path d="M112.771 17.5977L115.58 19.7738C115.739 19.8972 115.865 20.0585 115.945 20.2429C116.025 20.4274 116.058 20.629 116.04 20.8295C116.023 21.0299 115.955 21.2227 115.843 21.3901C115.732 21.5575 115.58 21.6942 115.402 21.7876L112.803 23.1193L112.771 17.5977Z" fill="#F4A28C"/>
<path opacity="0.31" d="M109.311 29.0788C107.374 28.9628 105.497 28.3595 103.855 27.3249C103.855 27.3249 104.699 32.1969 111.016 34.1944L109.311 29.0788Z" fill="#CE8172"/>
<path d="M126.217 42.9317C103.904 43.3284 81.879 48.0379 61.3548 56.8006C58.2082 58.1312 55.3678 60.0927 53.0091 62.5641C50.6503 65.0355 48.8232 67.9642 47.6407 71.1693C46.4581 74.3745 45.9452 77.7881 46.1337 81.1992C46.3222 84.6104 47.208 87.9467 48.7364 91.0021L84.0259 161.402L149.441 157.521C149.441 157.521 161.361 117.96 158.973 73.2193C158.492 64.9141 154.81 57.1187 148.702 51.4709C142.594 45.823 134.535 42.7623 126.217 42.9317V42.9317Z" fill="#4094F7"/>
<path d="M84.0258 161.402L64.5378 269.041H74.2818L98.7879 210.577C107.466 189.879 122.768 172.646 142.295 161.581L149.473 157.505L84.0258 161.402Z" fill="#24285B"/>
<path opacity="0.08" d="M78.6178 66.1547C83.2529 69.9329 86.8347 74.8433 89.0167 80.4108C91.1988 85.9784 91.9074 92.0148 91.0739 97.9364C88.0858 118.318 84.9514 134.168 103.79 129.409C122.628 124.651 132.746 80.9656 132.746 80.9656L154.67 81.5015L150.886 130.221L138.17 131.098C135.161 131.304 132.304 132.493 130.038 134.483C127.773 136.472 126.224 139.152 125.633 142.109L122.206 159.112L84.0258 161.37L78.6178 153.25L54.7938 127.526L51.8218 86.3735L78.6178 66.1547Z" fill="black"/>
<path d="M104.593 122.511L147.077 125.485L151.15 67.2972L108.666 64.3233L104.593 122.511Z" fill="#FFD200"/>
<path d="M149.44 157.521L139.355 269.041H126.363C126.363 269.041 129.4 185.129 105.95 167.265L149.44 157.521Z" fill="#24285B"/>
<path d="M80.0794 72.456C79.9891 69.1725 78.8861 65.9971 76.9213 63.3647C74.9566 60.7323 72.2261 58.7716 69.1039 57.751C65.9817 56.7304 62.6204 56.6999 59.4801 57.6636C56.3399 58.6272 53.5743 60.538 51.562 63.1342C44.0591 72.7158 37.1409 88.696 37.7093 114.94C38.9273 170.968 71.8133 185.99 122.563 124.684L112.559 116.97C112.559 116.97 92.5842 133.924 74.2817 134.168C60.5914 134.363 81.0051 99.187 80.0794 72.456Z" fill="#4094F7"/>
<path opacity="0.39" d="M80.0794 72.456C79.9891 69.1725 78.8861 65.9971 76.9213 63.3647C74.9566 60.7323 72.2261 58.7716 69.1039 57.751C65.9817 56.7304 62.6204 56.6999 59.4801 57.6636C56.3399 58.6272 53.5743 60.538 51.562 63.1342C44.0591 72.7158 37.1409 88.696 37.7093 114.94C38.9273 170.968 71.8133 185.99 122.563 124.684L112.559 116.97C112.559 116.97 92.5842 133.924 74.2817 134.168C60.5914 134.363 81.0051 99.187 80.0794 72.456Z" fill="white"/>
<path opacity="0.08" d="M149.067 94.7859C149.067 94.7859 134.451 121.631 105.219 114.047L104.585 123.449L146.972 126.324L149.067 94.7859Z" fill="black"/>
<path d="M114.411 118.383C114.411 118.383 120.387 107.827 127.695 110.62C135.003 113.413 122.563 124.684 122.563 124.684L114.411 118.383Z" fill="#F4A28C"/>
<path opacity="0.58" d="M180.248 263.292C180.248 263.292 166.411 259.508 163.407 246.646C163.407 246.646 184.828 242.31 185.445 264.429L180.248 263.292Z" fill="#4094F7"/>
<path opacity="0.73" d="M181.937 261.911C181.937 261.911 172.274 246.646 180.784 232.355C180.784 232.355 197.024 242.716 189.829 261.944L181.937 261.911Z" fill="#4094F7"/>
<path d="M184.421 261.928C184.421 261.928 189.537 245.802 204.965 242.749C204.965 242.749 207.856 253.223 194.977 261.977L184.421 261.928Z" fill="#4094F7"/>
<path d="M174.401 261.571L177.195 280.751L194.864 280.815L197.462 261.669L174.401 261.571Z" fill="#24285B"/>
</svg>
