<svg width="20" height="20" viewBox="0 0 20 20" fill="none" xmlns="http://www.w3.org/2000/svg">
<path fill-rule="evenodd" clip-rule="evenodd" d="M14.9998 9.99992C16.8408 9.99992 18.3332 8.5075 18.3332 6.66659C18.3332 4.82564 16.8408 3.33325 14.9998 3.33325C13.4467 3.33325 12.1416 4.39556 11.7715 5.83325H2.49984C2.0396 5.83325 1.6665 6.20635 1.6665 6.66659C1.6665 7.12683 2.0396 7.49992 2.49984 7.49992H11.7715C12.1416 8.93759 13.4467 9.99992 14.9998 9.99992ZM13.3332 6.66659C13.3332 7.58706 14.0793 8.33325 14.9998 8.33325C15.9203 8.33325 16.6665 7.58706 16.6665 6.66659C16.6665 5.74611 15.9203 4.99992 14.9998 4.99992C14.0793 4.99992 13.3332 5.74611 13.3332 6.66659ZM1.6665 13.3333C1.6665 11.4923 3.15889 9.99992 4.99984 9.99992C6.55304 9.99992 7.85812 11.0623 8.22815 12.4999H17.4998C17.9601 12.4999 18.3332 12.873 18.3332 13.3333C18.3332 13.7935 17.9601 14.1666 17.4998 14.1666H8.22815C7.85812 15.6043 6.55304 16.6666 4.99984 16.6666C3.15889 16.6666 1.6665 15.1742 1.6665 13.3333ZM6.6665 13.3333C6.6665 12.4128 5.92031 11.6666 4.99984 11.6666C4.07936 11.6666 3.33317 12.4128 3.33317 13.3333C3.33317 14.2538 4.07936 14.9999 4.99984 14.9999C5.92031 14.9999 6.6665 14.2538 6.6665 13.3333Z" fill="#0E73F6"/>
</svg>
