<svg width="16" height="16" viewBox="0 0 16 16" fill="none" xmlns="http://www.w3.org/2000/svg">
<g clip-path="url(#clip0_5919_108363)">
<path d="M15.6865 3.45654H2.5022C2.32893 3.45654 2.18848 3.597 2.18848 3.77027V4.82564H14.1257C14.4723 4.82564 14.7532 5.10655 14.7532 5.45309V10.233H15.6865C15.8598 10.233 16.0002 10.0926 16.0002 9.91929V3.77027C16.0002 3.597 15.8598 3.45654 15.6865 3.45654Z" fill="#6E8BB7"/>
<path d="M13.498 5.76685H0.313726C0.140549 5.76685 0 5.90739 0 6.08057V12.2296C0 12.4028 0.140549 12.5433 0.313726 12.5433H13.498C13.6712 12.5433 13.8118 12.4028 13.8118 12.2296V6.08057C13.8118 5.90739 13.6712 5.76685 13.498 5.76685ZM2.48941 9.51367C2.48941 9.77406 2.27796 9.98426 2.01882 9.98426C1.75843 9.98426 1.54824 9.77312 1.54824 9.51367V8.79649C1.54824 8.53579 1.75937 8.3259 2.01882 8.3259C2.27639 8.3259 2.48941 8.53422 2.48941 8.79649V9.51367ZM6.90573 11.1742C5.79326 11.1742 4.88659 10.2694 4.88659 9.15508C4.88659 8.04136 5.79231 7.13563 6.90573 7.13563C8.01945 7.13563 8.92518 8.04136 8.92518 9.15508C8.92518 10.2663 8.02196 11.1742 6.90573 11.1742ZM12.2635 9.51367C12.2635 9.77343 12.0527 9.98426 11.7929 9.98426C11.5329 9.98426 11.3224 9.77343 11.3224 9.51367V8.79649C11.3224 8.53641 11.5329 8.3259 11.7929 8.3259C12.0527 8.3259 12.2635 8.53641 12.2635 8.79649V9.51367Z" fill="#6E8BB7"/>
<path d="M6.9056 10.2331C7.50042 10.2331 7.98387 9.74969 7.98387 9.15518C7.98387 8.56067 7.50042 8.0769 6.9056 8.0769C6.31109 8.0769 5.82764 8.56067 5.82764 9.15518C5.82764 9.74969 6.31109 10.2331 6.9056 10.2331Z" fill="#6E8BB7"/>
</g>
<defs>
<clipPath id="clip0_5919_108363">
<rect width="16" height="16" fill="white"/>
</clipPath>
</defs>
</svg>
