<svg width="16" height="16" viewBox="0 0 16 16" fill="none" xmlns="http://www.w3.org/2000/svg">
<g clip-path="url(#clip0_6825_125812)">
<path d="M3.33338 3.99984H12.6667C13.0334 3.99984 13.3334 3.69984 13.3334 3.33317C13.3334 2.9665 13.0334 2.6665 12.6667 2.6665H3.33338C2.96672 2.6665 2.66672 2.9665 2.66672 3.33317C2.66672 3.69984 2.96672 3.99984 3.33338 3.99984ZM13.44 5.19984C13.38 4.89317 13.1067 4.6665 12.7867 4.6665H3.21338C2.89338 4.6665 2.62005 4.89317 2.56005 5.19984L1.89338 8.53317C1.81338 8.9465 2.12672 9.33317 2.54672 9.33317H2.66672V12.6665C2.66672 13.0332 2.96672 13.3332 3.33338 13.3332H8.66672C9.03338 13.3332 9.33338 13.0332 9.33338 12.6665V9.33317H12V12.6665C12 13.0332 12.3 13.3332 12.6667 13.3332C13.0334 13.3332 13.3334 13.0332 13.3334 12.6665V9.33317H13.4534C13.8734 9.33317 14.1867 8.9465 14.1067 8.53317L13.44 5.19984ZM8.00005 11.9998H4.00005V9.33317H8.00005V11.9998Z" fill="white"/>
</g>
<defs>
<clipPath id="clip0_6825_125812">
<rect width="16" height="16" fill="white"/>
</clipPath>
</defs>
</svg>
