<svg width="73" height="72" viewBox="0 0 73 72" fill="none" xmlns="http://www.w3.org/2000/svg">
<circle cx="36.5" cy="36" r="36" fill="url(#paint0_linear_88_39305)"/>
<path fill-rule="evenodd" clip-rule="evenodd" d="M38.999 52.2326C43.8202 52.2326 47.3855 50.2436 49.6951 46.2657C51.3984 43.3148 52.25 39.713 52.25 35.4602C52.25 33.7822 52.0479 32.0175 51.6437 30.1659C51.2396 28.3144 50.4818 26.593 49.3703 25.0018C47.9846 23.0346 46.173 21.6821 43.9356 20.9443C42.6221 20.5104 40.9765 20.2789 38.999 20.25H25.25V52.2326H38.999Z" fill="white"/>
<mask id="mask0_88_39305" style="mask-type:alpha" maskUnits="userSpaceOnUse" x="25" y="20" width="28" height="33">
<path fill-rule="evenodd" clip-rule="evenodd" d="M38.999 52.2326C43.8202 52.2326 47.3855 50.2436 49.6951 46.2657C51.3984 43.3148 52.25 39.713 52.25 35.4602C52.25 33.7822 52.0479 32.0175 51.6437 30.1659C51.2396 28.3144 50.4818 26.593 49.3703 25.0018C47.9846 23.0346 46.173 21.6821 43.9356 20.9443C42.6221 20.5104 40.9765 20.2789 38.999 20.25H25.25V52.2326H38.999Z" fill="white"/>
</mask>
<g mask="url(#mask0_88_39305)">
<path fill-rule="evenodd" clip-rule="evenodd" d="M31.7236 46.678V25.8047H37.8728C40.9041 25.8047 42.9285 26.6762 43.9462 28.4193C44.9638 30.1623 45.4726 32.6612 45.4726 35.9159C45.4726 38.2737 45.1334 40.3061 44.455 42.013C43.2136 45.123 41.0195 46.678 37.8728 46.678H31.7236Z" fill="#0E73F6"/>
</g>
<defs>
<linearGradient id="paint0_linear_88_39305" x1="0.499986" y1="72" x2="72.5" y2="-3.10818e-05" gradientUnits="userSpaceOnUse">
<stop stop-color="#0974E9"/>
<stop offset="1" stop-color="#3593F9"/>
</linearGradient>
</defs>
</svg>
